<svg width="314" height="145" viewBox="0 0 314 145" fill="none" xmlns="http://www.w3.org/2000/svg">
<path d="M11.2156 66.168C5.44395 78.6419 0.506765 89.3428 0.228614 89.976C-0.188613 90.9891 0.228614 91.1157 5.51349 90.9258L11.2851 90.7358L13.5103 85.3537L15.7356 79.9716L27.2788 79.7816L38.7526 79.655L41.1169 85.1637L43.4812 90.7358L49.531 90.9258C52.8688 90.9891 55.5808 90.9891 55.5808 90.9258C55.5808 90.7991 50.6436 80.1615 44.5938 67.3077L33.6068 43.8796L27.6961 43.6897L21.7158 43.4997L11.2156 66.168ZM27.4875 71.2968C23.3152 71.3601 19.8383 71.3601 19.6992 71.2335C19.4906 71.1069 21.5072 66.168 26.7921 53.6941C27.0007 53.1242 28.8782 56.6701 31.173 61.9256L35.0671 71.1069L27.4875 71.2968Z" fill="#E8ECFC"/>
<path d="M65.7266 61.8099C62.5973 63.1396 60.5807 66.4322 60.5807 70.3579C60.5807 76.8165 63.2232 78.4628 74.4883 78.8427C83.3892 79.1593 84.919 79.6025 84.919 81.7554C84.919 84.5414 83.3892 84.9847 71.9154 85.238L61.2761 85.4279V88.214V91H74.4188C86.6575 91 87.631 90.9367 89.3694 89.6703C93.4026 86.7576 94.5848 80.6157 91.8728 76.5632C89.8562 73.5239 86.8661 72.6374 78.7301 72.6374C71.4287 72.6374 69.6207 72.0042 69.6207 69.4715C69.6207 67.3819 71.9154 66.9387 82.068 66.9387H91.8728V63.7728V60.6068H80.26C70.3856 60.6068 68.1604 60.7967 65.7266 61.8099Z" fill="#E8ECFC"/>
<path d="M98.3368 70.1047V91H102.509H106.681L106.82 79.096L107.029 67.2553L110.158 67.0653C111.827 66.9387 114.261 67.002 115.513 67.2553C119.754 67.9518 119.894 68.4584 119.894 80.2991V91H124.483H129.073L128.794 79.096C128.586 68.7116 128.447 67.002 127.195 65.2291C125.109 61.9998 121.98 60.9867 113.844 60.7334L106.681 60.4802V54.8447V49.2093H102.509H98.3368V70.1047Z" fill="#E8ECFC"/>
<path d="M136.089 63.7094V66.8754L146.589 67.0653C155.977 67.2553 157.159 67.3819 158.063 68.4584C158.619 69.1549 159.036 70.3579 159.036 71.1178C159.036 72.4475 158.758 72.5108 150.205 72.7641C140.539 73.0174 138.244 73.5872 135.88 76.5632C135.046 77.5763 134.35 79.6025 134.142 81.6288C133.933 84.4148 134.142 85.3646 135.532 87.2008C138.175 90.81 139.148 91 154.377 91H168.076V79.6025C168.076 67.3819 167.798 66.0522 164.46 63.3928C161.679 61.1133 158.619 60.6068 147.145 60.6068H136.089V63.7094ZM159.036 82.1353V85.3013H152.152C143.599 85.3013 141.513 84.0349 143.738 80.1724C144.433 79.096 145.268 78.9694 151.735 78.9694H159.036V82.1353Z" fill="#E8ECFC"/>
<path d="M197.414 54.9081V60.6068H191.712C184.48 60.6068 181.351 61.3666 178.152 63.9627C174.467 66.8754 173.076 70.168 173.076 75.8034C173.076 83.0218 175.788 87.3275 181.699 89.7969C184.063 90.81 186.288 91 195.537 91H206.454V70.1047V49.2093H201.934H197.414V54.9081ZM197.414 75.8034V84.6681H192.547C184.55 84.6681 182.116 82.6419 182.116 75.8667C182.116 69.5981 185.315 67.0653 193.451 67.002L197.414 66.9387V75.8034Z" fill="#E8ECFC"/>
<path d="M221.12 61.5566C214.444 63.7094 211.454 68.0151 211.454 75.6134C211.454 81.5021 212.845 85.1113 216.252 87.7707C219.521 90.3668 222.511 91 232.385 91H240.869V88.214V85.4912L232.802 85.1113C223.554 84.7314 221.398 83.9083 221.398 80.8689V78.9694H231.134H240.869V75.8034V72.7008L230.925 72.5108L220.981 72.3208L221.537 70.3579C222.302 67.5719 224.458 66.9387 233.22 66.9387H240.869V63.7728V60.6068H232.385C226.892 60.6701 222.859 60.9867 221.12 61.5566Z" fill="#E8ECFC"/>
<path d="M256.181 61.3666C250.27 62.8863 246.654 67.4453 245.959 74.0938C245.472 79.0327 247.002 84.2248 249.644 86.8209C253.121 90.1769 256.25 91 266.472 91H275.651V88.2773V85.4912L267.168 85.1113C257.989 84.6681 256.737 84.2248 255.833 80.679L255.346 78.9694H265.499H275.651V75.8034V72.6374H265.499H255.346L255.833 70.8645C256.668 67.5719 257.641 67.2553 266.959 67.0653L275.651 66.8121V63.7094V60.6068L267.168 60.6701C262.439 60.6701 257.502 60.9867 256.181 61.3666Z" fill="#E8ECFC"/>
<path d="M280.651 70.1047V91H284.824H288.926L289.135 85.4912L289.344 79.9191L296.993 79.5392C301.235 79.2859 304.851 79.096 305.129 79.0327C306.45 78.8427 310.831 74.6636 312.152 72.3842C314.447 68.4584 314.308 60.7334 311.874 56.491C309.996 53.0718 307.006 50.8556 302.973 49.8425C301.582 49.5259 296.019 49.2093 290.595 49.2093H280.651V70.1047ZM299.635 56.2378C303.251 57.1242 304.642 59.3404 304.642 64.1527C304.642 71.0545 302.069 73.2706 293.864 73.2706H288.996V64.4059V55.5413H293.029C295.185 55.5413 298.175 55.8578 299.635 56.2378Z" fill="#E8ECFC"/>
</svg>
