<svg width="161" height="145" viewBox="0 0 161 145" fill="none" xmlns="http://www.w3.org/2000/svg">
<path d="M79.9166 10.9168C73.2129 11.1658 67.4522 13.7991 63.1858 18.5677C60.4137 21.6664 58.8582 24.9285 58.4418 28.5089C58.3112 29.648 58.3193 31.2443 58.4622 32.416C58.7643 34.882 59.6788 36.8457 61.2548 38.4298C62.8102 39.9894 64.6964 40.9488 66.8521 41.2754C67.5257 41.3775 68.8975 41.3734 69.6079 41.2713C71.2368 41.0386 72.7515 40.463 74.0906 39.5729C74.8092 39.0912 75.2256 38.7564 75.8176 38.1644C77.3486 36.6416 78.2753 34.8779 78.6387 32.8161C78.7367 32.2364 78.7367 30.6197 78.6387 30.0399C78.4346 28.8723 77.9487 27.4883 77.5445 26.9167C77.1118 26.3084 77.0873 26.2635 77.071 26.0675C77.0383 25.7491 77.2098 25.5449 77.8589 25.1122C78.1569 24.9162 78.4427 24.7447 78.4999 24.7325C78.5938 24.708 78.6265 24.7447 78.9082 25.1693C79.6471 26.288 80.133 27.3699 80.4473 28.6069C80.8842 30.338 80.9087 32.2895 80.5086 34.0614C79.9247 36.6824 78.2835 39.0871 75.7563 41.0264C75.5318 41.1978 75.344 41.3571 75.344 41.3693C75.344 41.4387 75.6992 41.4877 75.9197 41.451C76.3116 41.3816 77.8548 41.353 78.4468 41.4061C81.3986 41.6592 83.9584 42.8309 85.9834 44.8559C87.3348 46.2073 88.3146 47.824 88.9107 49.6775C89.3393 51.0166 89.5312 52.6007 89.4373 53.997C89.0617 59.4514 86.1467 63.2728 81.0801 64.9466C80.4024 65.1712 79.7573 65.3304 79.0715 65.4406C78.5326 65.5305 77.0301 65.5631 76.4831 65.5019C74.2049 65.2406 72.0697 64.1832 70.3387 62.4562C69.1179 61.2355 68.3177 59.9168 67.5461 57.8469C67.3624 57.3529 67.2032 56.8916 67.1909 56.8222C67.1624 56.6507 67.2358 56.52 67.3991 56.4547C67.6114 56.3649 68.7668 56.0669 68.8975 56.0669C69.073 56.0669 69.1547 56.1771 69.3017 56.6221C70.1304 59.1452 71.4736 61.0436 73.2414 62.199C75.0623 63.3912 77.4262 63.73 79.8349 63.1462C81.6925 62.693 83.2317 61.8275 84.5136 60.5088C86.4447 58.5287 87.4736 55.8382 87.3756 53.0253C87.347 52.319 87.2817 51.7515 87.1592 51.2044C86.5958 48.6528 85.1015 46.4604 82.9786 45.0641C80.4514 43.4025 77.4343 43.0514 73.0169 43.9046C69.0036 44.6803 65.2884 46.4645 62.157 49.1223C61.4956 49.6816 60.4341 50.7186 59.8258 51.3963C55.3227 56.4343 53.1711 63.1013 53.9101 69.7234C54.6858 76.6067 57.8212 82.1142 63.3492 86.2826C64.9577 87.4952 66.7459 88.524 68.4647 89.2344C70.8449 90.2101 73.4292 90.7899 76.2218 90.9736C76.6504 90.9981 81.9048 91.0144 91.5848 91.0144C105.029 91.0144 106.311 91.0103 106.438 90.9491C106.54 90.9001 106.589 90.8429 106.621 90.7327C106.682 90.5163 106.65 36.7886 106.584 35.8577C106.47 34.2206 106.348 33.2816 106.086 31.9588C104.96 26.3492 102.257 21.5276 98.162 17.8287C93.716 13.8073 88.9107 11.5823 83.4562 11.0148C82.9704 10.9658 80.8515 10.8555 80.7739 10.88C80.7617 10.8841 80.3779 10.9004 79.9166 10.9168Z" fill="#E8ECFC"/>
<path d="M4.74637 118.733L8.24111 105.479C9.1879 101.868 12.2696 100.058 17.4862 100.048H24.9908C25.3342 100.048 25.6174 100.178 25.8401 100.438C26.0722 100.698 26.1882 101 26.1882 101.343V118.733C26.1882 119.095 26.0583 119.402 25.7984 119.652C25.5385 119.894 25.2275 120.014 24.8655 120.014H22.2479C21.8674 120.014 21.5518 119.894 21.3011 119.652C21.0598 119.402 20.9391 119.086 20.9391 118.706V115.197H11.0397L10.1068 118.706C10.014 119.086 9.80516 119.402 9.48028 119.652C9.15541 119.894 8.81197 120.014 8.44996 120.014H5.70708C5.34507 120.014 5.08517 119.912 4.92738 119.708C4.76958 119.495 4.69068 119.309 4.69068 119.151C4.69996 118.993 4.71853 118.854 4.74637 118.733ZM12.07 111.257H20.9391V103.989H16.971C16.0799 103.989 15.3002 104.244 14.6319 104.755C13.9729 105.256 13.5273 105.933 13.2953 106.787L12.07 111.257ZM29.0286 114.905C29.0286 114.357 29.191 113.967 29.5159 113.735C29.8407 113.494 30.1563 113.373 30.4626 113.373H32.1195C32.9549 113.373 33.5907 113.828 34.027 114.737C34.4633 115.647 35.4425 116.102 36.9648 116.102L41.838 116.199C43.4716 116.199 44.2885 115.666 44.2885 114.598C44.2885 113.791 43.2906 113.155 41.2949 112.691C40.4039 112.477 39.4199 112.268 38.3432 112.064C37.2665 111.851 36.1944 111.586 35.1269 111.271C34.0688 110.955 33.0941 110.584 32.2031 110.157C31.312 109.73 30.588 109.145 30.031 108.402C29.4834 107.651 29.2096 106.769 29.2096 105.757C29.2096 103.891 29.8732 102.457 31.2006 101.455C32.5279 100.443 34.8113 99.9371 38.0508 99.9371L41.5873 100.021C43.4902 100.021 45.2027 100.513 46.725 101.496C48.2566 102.471 49.0224 103.692 49.0224 105.158C49.0224 105.706 48.8599 106.1 48.535 106.342C48.2102 106.583 47.8992 106.704 47.6022 106.704H45.9453C45.1099 106.704 44.4741 106.249 44.0378 105.339C43.6016 104.42 42.6223 103.961 41.1 103.961L36.9091 103.877C35.2755 103.877 34.4586 104.411 34.4586 105.479C34.4586 106.063 34.9738 106.541 36.0041 106.913C37.0437 107.284 38.2968 107.613 39.7634 107.901C41.2393 108.18 42.7198 108.518 44.2049 108.918C45.6901 109.317 46.9478 109.976 47.9781 110.895C49.0177 111.804 49.5375 112.941 49.5375 114.306C49.5375 116.172 48.8692 117.61 47.5326 118.622C46.2052 119.625 43.9264 120.126 40.6962 120.126L36.4775 120.042C34.5747 120.042 32.8574 119.555 31.3259 118.58C29.7943 117.596 29.0286 116.371 29.0286 114.905ZM52.3918 118.706V101.371C52.3918 101.009 52.5217 100.698 52.7816 100.438C53.0415 100.178 53.3618 100.048 53.7423 100.048H56.3321C56.6941 100.048 57.0004 100.178 57.251 100.438C57.5109 100.698 57.6409 101.009 57.6409 101.371V107.637H67.2201V101.371C67.2201 101.009 67.35 100.698 67.6099 100.438C67.8698 100.178 68.1808 100.048 68.5428 100.048H71.1325C71.5131 100.048 71.8287 100.178 72.0793 100.438C72.3392 100.698 72.4691 101.009 72.4691 101.371V118.706C72.4691 119.068 72.3346 119.379 72.0654 119.638C71.8055 119.889 71.4945 120.014 71.1325 120.014H68.5428C68.1808 120.014 67.8698 119.894 67.6099 119.652C67.35 119.402 67.2201 119.095 67.2201 118.733V111.577H57.6409V118.733C57.6409 119.095 57.5109 119.402 57.251 119.652C57.0004 119.894 56.6941 120.014 56.3321 120.014H53.7423C53.3803 120.014 53.0647 119.889 52.7956 119.638C52.5264 119.379 52.3918 119.068 52.3918 118.706ZM76.479 118.733V101.371C76.479 101.009 76.609 100.698 76.8689 100.438C77.1288 100.178 77.4397 100.048 77.8018 100.048H80.3915C80.772 100.048 81.0876 100.178 81.3383 100.438C81.5982 100.698 81.7281 101.009 81.7281 101.371V118.706C81.7281 119.068 81.5935 119.379 81.3243 119.638C81.0644 119.889 80.7535 120.014 80.3915 120.014H77.8018C77.4397 120.014 77.1288 119.894 76.8689 119.652C76.609 119.402 76.479 119.095 76.479 118.733ZM84.0812 118.733L87.5759 105.479C88.5227 101.868 91.6044 100.058 96.8209 100.048H104.326C104.669 100.048 104.952 100.178 105.175 100.438C105.407 100.698 105.523 101 105.523 101.343V118.733C105.523 119.095 105.393 119.402 105.133 119.652C104.873 119.894 104.562 120.014 104.2 120.014H101.583C101.202 120.014 100.887 119.894 100.636 119.652C100.395 119.402 100.274 119.086 100.274 118.706V115.197H90.3745L89.4416 118.706C89.3488 119.086 89.1399 119.402 88.8151 119.652C88.4902 119.894 88.1467 120.014 87.7847 120.014H85.0419C84.6799 120.014 84.42 119.912 84.2622 119.708C84.1044 119.495 84.0255 119.309 84.0255 119.151C84.0347 118.993 84.0533 118.854 84.0812 118.733ZM91.4048 111.257H100.274V103.989H96.3058C95.4147 103.989 94.635 104.244 93.9667 104.755C93.3076 105.256 92.8621 105.933 92.63 106.787L91.4048 111.257ZM109.505 118.706V101.371C109.505 101.009 109.63 100.698 109.881 100.438C110.132 100.178 110.438 100.048 110.8 100.048H114.893C115.218 100.048 115.562 100.178 115.924 100.438C116.286 100.698 116.583 101.009 116.815 101.371L125.224 114.306V101.343C125.224 100.981 125.35 100.675 125.6 100.424C125.86 100.174 126.171 100.048 126.533 100.048H128.928C129.29 100.048 129.596 100.174 129.847 100.424C130.107 100.675 130.237 100.991 130.237 101.371V118.706C130.237 119.068 130.107 119.379 129.847 119.638C129.596 119.889 129.29 120.014 128.928 120.014H124.305C123.943 120.014 123.572 119.889 123.192 119.638C122.811 119.379 122.509 119.068 122.287 118.706L114.587 106.759V118.706C114.587 119.068 114.457 119.379 114.197 119.638C113.947 119.889 113.64 120.014 113.278 120.014H110.828C110.466 120.014 110.155 119.889 109.895 119.638C109.635 119.379 109.505 119.068 109.505 118.706ZM132.59 118.733L136.085 105.479C137.031 101.868 140.113 100.058 145.33 100.048H152.834C153.178 100.048 153.461 100.178 153.684 100.438C153.916 100.698 154.032 101 154.032 101.343V118.733C154.032 119.095 153.902 119.402 153.642 119.652C153.382 119.894 153.071 120.014 152.709 120.014H150.091C149.711 120.014 149.395 119.894 149.145 119.652C148.903 119.402 148.783 119.086 148.783 118.706V115.197H138.883L137.95 118.706C137.857 119.086 137.649 119.402 137.324 119.652C136.999 119.894 136.655 120.014 136.293 120.014H133.551C133.189 120.014 132.929 119.912 132.771 119.708C132.613 119.495 132.534 119.309 132.534 119.151C132.543 118.993 132.562 118.854 132.59 118.733ZM139.913 111.257H148.783V103.989H144.814C143.923 103.989 143.144 104.244 142.475 104.755C141.816 105.256 141.371 105.933 141.139 106.787L139.913 111.257Z" fill="#E8ECFC"/>
</svg>
