<svg width="227" height="145" viewBox="0 0 227 145" fill="none" xmlns="http://www.w3.org/2000/svg">
<g clip-path="url(#clip0_13_14)">
<path d="M131.632 12.406C131.109 12.7557 130.717 16.4857 130.717 20.5654C130.717 28.8414 131.763 29.4242 140.395 26.277C145.495 24.412 146.803 22.7801 145.887 19.9826C144.449 16.1361 133.725 10.4245 131.632 12.406Z" fill="#E8ECFC"/>
<path d="M137.91 28.1421C133.594 29.3077 128.624 31.0561 126.794 31.7555L123.524 33.2708L123.132 61.479L122.87 89.6873H134.64H146.411V57.6325C146.411 40.0315 146.28 25.6942 146.149 25.6942C145.887 25.8108 142.226 26.8599 137.91 28.1421ZM133.333 36.6511C133.333 38.9824 132.679 39.5652 130.194 39.5652C128.363 39.5652 126.532 38.9824 126.14 38.3996C124.57 36.1849 126.663 33.7371 130.063 33.7371C132.679 33.7371 133.333 34.3199 133.333 36.6511ZM133.333 44.8105C133.333 47.2584 132.679 47.7246 129.409 47.7246C126.532 47.7246 125.486 47.1418 125.486 45.6265C125.486 42.7124 126.663 41.8965 130.325 41.8965C132.679 41.8965 133.333 42.4793 133.333 44.8105ZM142.487 44.8105C142.487 47.2584 141.833 47.7246 138.564 47.7246C135.687 47.7246 134.64 47.1418 134.64 45.6265C134.64 42.7124 135.817 41.8965 139.479 41.8965C141.833 41.8965 142.487 42.4793 142.487 44.8105ZM133.333 53.5528C133.333 56.4668 132.809 57.0496 130.063 57.0496C126.532 57.0496 124.701 54.7184 126.009 51.8043C126.401 50.8718 128.232 50.0559 130.063 50.0559C132.809 50.0559 133.333 50.6387 133.333 53.5528ZM142.487 53.6693C142.487 56.8165 142.095 57.1662 138.956 56.8165C136.733 56.5834 135.425 55.6509 135.163 54.2521C134.64 50.9884 135.556 50.0559 139.348 50.0559C141.964 50.0559 142.487 50.6387 142.487 53.6693ZM142.487 62.4115C142.487 64.9759 141.964 65.3256 138.956 64.9759C136.341 64.7428 135.163 63.9269 134.902 61.9453C134.51 59.7306 135.033 59.3809 138.433 59.3809C141.964 59.3809 142.487 59.8472 142.487 62.4115ZM142.487 75.6997C142.487 78.6138 141.964 79.1966 139.218 79.1966C137.387 79.1966 135.556 78.3807 135.163 77.4482C133.856 74.5341 135.687 72.2028 139.218 72.2028C141.964 72.2028 142.487 72.7856 142.487 75.6997ZM142.487 84.5585C142.487 87.1229 141.964 87.4726 138.956 87.1229C136.341 86.8897 135.163 86.0738 134.902 84.0922C134.51 81.8775 135.033 81.5279 138.433 81.5279C141.964 81.5279 142.487 81.9941 142.487 84.5585Z" fill="#E8ECFC"/>
<path d="M6.73683 50.6391C0.197789 54.8354 -2.15627 75.8167 3.07497 84.9086C6.99839 91.5527 14.4529 92.8349 20.0765 87.8227L23.4768 84.6755V87.8227C23.4768 90.6202 23.8691 90.8533 28.708 90.8533H33.9392V69.872V48.8907H28.708C23.8691 48.8907 23.4768 49.1238 23.4768 52.0379V55.1851L19.8149 52.0379C15.6299 48.541 11.0526 48.0747 6.73683 50.6391ZM21.9074 61.7126C24.1307 65.5591 23.0844 77.6817 20.338 80.2461C15.4991 84.4423 10.791 76.3995 12.2296 66.0254C12.622 62.9948 13.2759 59.9641 13.799 59.2648C15.2376 57.1666 20.0765 58.6819 21.9074 61.7126Z" fill="#E8ECFC"/>
<path d="M40.4783 49.5896C40.4783 49.9393 43.2247 59.1478 46.625 69.9881L52.7716 89.6873H59.4415H66.2421L72.258 70.1047C75.6583 59.2643 78.4047 50.0559 78.4047 49.7062C78.4047 49.2399 75.5275 48.8903 71.9964 48.8903H65.5882L62.5802 62.9944L59.5722 77.0985L56.5643 64.3931C54.9949 57.5159 53.6871 51.1049 53.6871 50.289C53.5563 48.8903 40.4783 48.0743 40.4783 49.5896Z" fill="#E8ECFC"/>
<path d="M88.2132 51.9214C79.8432 59.9643 81.0202 85.375 90.0441 89.6878C94.2291 91.6694 99.3295 90.97 102.599 88.0559C105.738 85.2584 105.738 85.2584 106.13 87.8228C106.392 89.8044 107.438 90.2706 111.754 90.2706H116.985L117.377 69.5224L117.639 48.8908H111.754C106.392 48.8908 105.869 49.1239 105.869 51.8049V54.6024L102.599 51.8049C98.2833 47.9583 92.3982 47.9583 88.2132 51.9214ZM104.561 60.4305C106.784 64.2771 106.13 76.2831 103.515 79.1971C100.507 82.5775 97.1063 81.1787 95.4061 75.9334C93.706 70.4549 93.8367 68.0071 95.5369 62.5287C96.5831 59.0318 97.4986 58.2158 99.9834 58.2158C101.814 58.2158 103.776 59.1483 104.561 60.4305Z" fill="#E8ECFC"/>
<path d="M161.581 51.3382C159.75 52.6203 157.396 55.1847 156.35 56.8166C151.511 65.3257 153.08 80.1292 159.358 86.4236C163.674 90.853 172.567 92.1352 178.713 89.2211C191.138 83.5095 191.53 56.3504 179.237 50.7553C173.613 48.0744 165.766 48.4241 161.581 51.3382ZM176.098 61.7122C178.19 65.3257 178.321 73.4851 176.229 77.3317C174.136 81.6445 169.951 82.4604 167.074 79.1967C163.935 75.8164 163.804 64.5098 166.812 60.7797C169.428 57.3994 173.875 57.8657 176.098 61.7122Z" fill="#E8ECFC"/>
<path d="M194.015 50.4061C193.753 51.222 193.622 60.5471 193.753 71.0377L194.146 90.2706L199.769 90.6203L205.262 90.97V78.1481C205.262 63.228 206.57 59.0317 210.885 59.6146C213.632 59.9642 213.763 60.5471 214.417 75.1174L215.07 90.2706L220.694 90.6203L226.187 90.97V72.553C226.187 57.7496 225.794 53.5533 224.094 51.4552C221.217 47.8417 214.417 47.9583 209.316 51.9214L205.262 54.952V51.9214C205.262 49.1239 204.739 48.8908 200.031 48.8908C196.892 48.8908 194.407 49.4736 194.015 50.4061Z" fill="#E8ECFC"/>
<path d="M30.0158 107.055C30.0158 112.883 30.1465 113 33.9392 113C37.2087 113 37.8626 112.534 37.8626 110.086C37.8626 108.221 37.0779 107.172 35.7701 107.172C34.4623 107.172 33.9392 107.871 34.3315 108.92C34.8546 109.853 34.5931 110.902 33.9392 111.252C33.1545 111.718 32.6314 110.086 32.6314 107.755C32.6314 104.025 32.8929 103.558 35.3778 104.258C37.3395 104.841 37.9934 104.607 37.601 103.558C37.2087 102.626 35.3778 101.81 33.5468 101.577C30.1465 101.227 30.0158 101.344 30.0158 107.055Z" fill="#E8ECFC"/>
<path d="M69.2499 107.172C69.2499 113.233 70.8193 114.865 72.5195 110.319L73.5657 107.755L74.0888 110.436C74.3504 111.834 75.5274 113 76.5737 113C78.143 113 78.4046 109.969 77.2276 102.16C77.0968 101.693 75.3966 101.344 73.1734 101.344C69.3807 101.344 69.2499 101.46 69.2499 107.172ZM74.4812 104.841C74.4812 105.423 73.958 106.006 73.1734 106.006C72.5195 106.006 71.8656 105.423 71.8656 104.841C71.8656 104.141 72.5195 103.675 73.1734 103.675C73.958 103.675 74.4812 104.141 74.4812 104.841Z" fill="#E8ECFC"/>
<path d="M109.007 104.141C108.615 105.773 108.615 108.571 109.007 110.202C109.661 112.534 110.577 113.116 113.454 112.767C116.723 112.417 116.985 112.067 116.985 107.172C116.985 102.276 116.723 101.926 113.454 101.577C110.577 101.227 109.661 101.81 109.007 104.141ZM115.023 107.055C115.023 109.037 114.5 110.902 113.715 111.251C112.931 111.718 112.408 110.319 112.408 107.871C112.408 105.54 113.062 103.675 113.715 103.675C114.5 103.675 115.023 105.19 115.023 107.055Z" fill="#E8ECFC"/>
<path d="M149.026 107.172C149.026 112.883 149.157 113 152.95 113C156.742 113 156.873 112.883 156.873 107.172C156.873 103.908 156.35 101.344 155.565 101.344C154.911 101.344 154.257 103.675 154.257 106.589C154.257 109.503 153.734 111.834 152.95 111.834C152.296 111.834 151.642 109.503 151.642 106.589C151.642 103.675 151.119 101.344 150.334 101.344C149.68 101.344 149.026 103.908 149.026 107.172Z" fill="#E8ECFC"/>
<path d="M188.26 107.055C188.26 111.601 188.784 113 190.222 113C191.268 113 192.184 112.067 192.184 110.785C192.184 109.62 193.361 108.337 194.93 107.988C196.892 107.522 197.546 106.589 197.153 104.607C196.892 102.509 195.846 101.81 192.576 101.577L188.26 101.227V107.055Z" fill="#E8ECFC"/>
</g>
<defs>
<clipPath id="clip0_13_14">
<rect width="225.976" height="145" fill="white" transform="translate(0.21048)"/>
</clipPath>
</defs>
</svg>
