<svg width="250" height="145" viewBox="0 0 250 145" fill="none" xmlns="http://www.w3.org/2000/svg">
<path d="M177.779 48.4524C167.323 50.7816 161.049 61.3135 162.703 73.7695C164.016 83.6432 170.241 90.2763 179.481 91.6434C190.229 93.2637 199.663 86.8332 200.928 77.1114L201.268 74.7822H195.092C189.888 74.7822 188.964 74.8835 188.964 75.5417C188.964 75.9974 188.527 77.2127 187.992 78.276C186.046 82.2761 180.794 82.985 177.584 79.6431C173.353 75.1873 173.839 62.8832 178.411 59.4907C179.481 58.6806 180.648 58.3768 182.399 58.3261C185.463 58.3261 187.311 59.4907 188.429 62.1743L189.207 64.149H195.141H201.122L200.782 62.4781C199.663 56.2501 196.065 51.4399 191.055 49.4651C187.846 48.1993 181.232 47.6929 177.779 48.4524Z" fill="#E8ECFC"/>
<path d="M220.819 48.655C216.928 49.617 213.864 51.5411 211.092 54.6298C203.846 62.7819 203.846 77.162 211.092 85.3141C217.366 92.3523 227.725 94.0232 236.284 89.3648C239.834 87.3901 242.606 84.2002 244.552 79.9469C246.059 76.6557 246.108 76.3012 246.108 69.972C246.108 63.6427 246.059 63.2882 244.552 59.997C243.725 58.1236 242.12 55.5918 241.05 54.3766C236.381 49.1107 228.162 46.7815 220.819 48.655ZM228.454 58.5793C230.594 59.2375 232.977 61.9211 233.658 64.5035C234.339 66.9845 234.339 72.9594 233.658 75.4404C232.102 81.3646 225.536 83.6432 221.305 79.795C219.019 77.6683 217.901 74.3771 217.949 69.7188C217.998 64.0984 219.846 60.3515 223.25 58.7818C225.05 57.9716 226.12 57.921 228.454 58.5793Z" fill="#E8ECFC"/>
<path d="M3.18689 69.9719V90.9851H20.2084H37.2299V85.6685V80.3519H26.2875H15.3451V77.567V74.7822H24.8285H34.3119V69.9719V65.1617H24.8285H15.3451V62.3768V59.5919H25.8012H36.2572V54.2753V48.9587H19.722H3.18689V69.9719Z" fill="#E8ECFC"/>
<path d="M43.0659 69.9719V90.9851H58.142H73.2182V85.6685V80.3519H64.2211H55.2241V64.6553V48.9587H49.145H43.0659V69.9719Z" fill="#E8ECFC"/>
<path d="M79.0541 69.972V91.0864L91.115 90.8839C102.106 90.6814 103.37 90.5294 106.191 89.5168C110.325 87.9471 113.972 84.4533 115.82 80.2507C117.134 77.2127 117.231 76.7063 117.231 70.2251C117.231 64.2503 117.085 62.9845 116.064 60.1996C114.507 55.8957 111.541 52.5538 107.65 50.6803L104.586 49.212L91.8445 49.0601L79.0541 48.9081V69.972ZM99.8203 60.3515C103.662 62.0224 105.316 64.9592 105.316 70.1239C105.316 74.529 103.905 77.5671 101.133 79.1874C99.5771 80.0988 98.4586 80.352 95.2488 80.352H91.2123V69.972V59.592H94.6166C96.6105 59.592 98.799 59.8958 99.8203 60.3515Z" fill="#E8ECFC"/>
<path d="M123.31 69.9719V90.9851H140.331H157.353V85.6685V80.3519H146.411H135.468V77.567V74.7822H145.195H154.921V69.9719V65.1617H145.195H135.468V62.3768V59.5919H146.167H156.867V54.2753V48.9587H140.088H123.31V69.9719Z" fill="#E8ECFC"/>
</svg>
